<svg width="1280" height="720" viewBox="0 0 1280 720" fill="none" xmlns="http://www.w3.org/2000/svg">
  <defs>
    <linearGradient id="bg" x1="94" y1="34" x2="1176" y2="700" gradientUnits="userSpaceOnUse">
      <stop stop-color="#08111F"/>
      <stop offset="1" stop-color="#13233E"/>
    </linearGradient>
    <linearGradient id="shell" x1="96" y1="80" x2="1164" y2="636" gradientUnits="userSpaceOnUse">
      <stop stop-color="#15233E"/>
      <stop offset="1" stop-color="#101A30"/>
    </linearGradient>
    <linearGradient id="panel" x1="480" y1="138" x2="1126" y2="590" gradientUnits="userSpaceOnUse">
      <stop stop-color="#0F1A30"/>
      <stop offset="1" stop-color="#0A1425"/>
    </linearGradient>
    <linearGradient id="blue" x1="768" y1="310" x2="1122" y2="460" gradientUnits="userSpaceOnUse">
      <stop stop-color="#2563EB"/>
      <stop offset="1" stop-color="#38BDF8"/>
    </linearGradient>
    <filter id="shellShadow" x="48" y="50" width="1184" height="612" filterUnits="userSpaceOnUse" color-interpolation-filters="sRGB">
      <feFlood flood-opacity="0" result="BackgroundImageFix"/>
      <feColorMatrix in="SourceAlpha" type="matrix" values="0 0 0 0 0 0 0 0 0 0 0 0 0 0 0 0 0 0 127 0" result="hardAlpha"/>
      <feOffset dy="16"/>
      <feGaussianBlur stdDeviation="16"/>
      <feComposite in2="hardAlpha" operator="out"/>
      <feColorMatrix type="matrix" values="0 0 0 0 0.0117647 0 0 0 0 0.0431373 0 0 0 0 0.113725 0 0 0 0.4 0"/>
      <feBlend mode="normal" in2="BackgroundImageFix" result="effect1_dropShadow_0_1"/>
      <feBlend mode="normal" in="SourceGraphic" in2="effect1_dropShadow_0_1" result="shape"/>
    </filter>
  </defs>

  <rect width="1280" height="720" rx="36" fill="url(#bg)"/>
  <circle cx="1112" cy="78" r="116" fill="#315DFF" fill-opacity="0.12"/>
  <circle cx="120" cy="640" r="214" fill="#38BDF8" fill-opacity="0.08"/>
  <circle cx="1006" cy="632" r="126" fill="#0EA5E9" fill-opacity="0.07"/>

  <g filter="url(#shellShadow)">
    <rect x="80" y="82" width="1120" height="556" rx="32" fill="url(#shell)" stroke="#273654"/>
  </g>

  <text x="136" y="160" fill="#67D0FF" font-family="Helvetica, Arial, sans-serif" font-size="13" font-weight="700" letter-spacing="0.12em">DESKTOP CONTROL PLANE</text>
  <text x="136" y="232" fill="#F8FAFC" font-family="Helvetica, Arial, sans-serif" font-size="68" font-weight="700">PortPilot</text>
  <text x="136" y="286" fill="#D7E1EE" font-family="Helvetica, Arial, sans-serif" font-size="26" font-weight="600">Run local GitHub repos</text>
  <text x="136" y="320" fill="#D7E1EE" font-family="Helvetica, Arial, sans-serif" font-size="26" font-weight="600">without losing the thread.</text>
  <text x="136" y="366" fill="#9FB1CD" font-family="Helvetica, Arial, sans-serif" font-size="17">Import a repo, fill env values,</text>
  <text x="136" y="390" fill="#9FB1CD" font-family="Helvetica, Arial, sans-serif" font-size="17">launch the right action, then</text>
  <text x="136" y="414" fill="#9FB1CD" font-family="Helvetica, Arial, sans-serif" font-size="17">route it to `.localhost` with live logs.</text>

  <rect x="136" y="448" width="156" height="48" rx="24" fill="#48A5F1"/>
  <text x="214" y="479" fill="#F8FAFC" font-family="Helvetica, Arial, sans-serif" font-size="17" font-weight="700" text-anchor="middle">Download Beta</text>
  <rect x="308" y="448" width="162" height="48" rx="24" fill="#22314A"/>
  <text x="389" y="479" fill="#E6EDF7" font-family="Helvetica, Arial, sans-serif" font-size="17" font-weight="700" text-anchor="middle">Browse Releases</text>

  <rect x="136" y="528" width="304" height="64" rx="24" fill="#10192B"/>
  <circle cx="166" cy="560" r="7" fill="#38BDF8"/>
  <text x="186" y="555" fill="#F3F7FD" font-family="Helvetica, Arial, sans-serif" font-size="15" font-weight="700">Import → infer → run → route</text>
  <text x="186" y="578" fill="#8FA2BF" font-family="Helvetica, Arial, sans-serif" font-size="14">Node, Python, Rust, Go, Compose.</text>

  <rect x="474" y="136" width="650" height="448" rx="30" fill="url(#panel)" stroke="#273754"/>
  <rect x="474" y="136" width="650" height="54" rx="30" fill="#0F182B"/>
  <path d="M474 162C474 147.641 485.641 136 500 136H1098C1112.36 136 1124 147.641 1124 162V190H474V162Z" fill="#0F182B"/>
  <circle cx="508" cy="163" r="6" fill="#334763"/>
  <circle cx="528" cy="163" r="6" fill="#334763"/>
  <circle cx="548" cy="163" r="6" fill="#334763"/>
  <text x="578" y="168" fill="#7F92AF" font-family="Helvetica, Arial, sans-serif" font-size="13" font-weight="600">Workspace</text>
  <rect x="1014" y="150" width="82" height="26" rx="13" fill="#17324B"/>
  <text x="1055" y="167" fill="#73D6FF" font-family="Helvetica, Arial, sans-serif" font-size="13" font-weight="700" text-anchor="middle">Dashboard</text>

  <rect x="498" y="208" width="154" height="352" rx="24" fill="#0D1628"/>
  <text x="524" y="246" fill="#F8FAFC" font-family="Helvetica, Arial, sans-serif" font-size="18" font-weight="700">Projects</text>
  <rect x="524" y="268" width="102" height="34" rx="17" fill="#17314A"/>
  <text x="575" y="290" fill="#71D6FF" font-family="Helvetica, Arial, sans-serif" font-size="15" font-weight="700" text-anchor="middle">Running 2 / 3</text>

  <rect x="514" y="328" width="122" height="70" rx="20" fill="#17314A"/>
  <text x="540" y="356" fill="#9BDFFF" font-family="Helvetica, Arial, sans-serif" font-size="13" font-weight="700">Project A</text>
  <text x="540" y="383" fill="#F8FAFC" font-family="Helvetica, Arial, sans-serif" font-size="22" font-weight="700">Crucix</text>

  <rect x="514" y="412" width="122" height="70" rx="20" fill="#111C31"/>
  <text x="540" y="440" fill="#92A4BF" font-family="Helvetica, Arial, sans-serif" font-size="13" font-weight="700">Project B</text>
  <text x="540" y="467" fill="#E6EDF8" font-family="Helvetica, Arial, sans-serif" font-size="20" font-weight="700">worldmonitor</text>

  <rect x="514" y="496" width="122" height="44" rx="16" fill="#111C31"/>
  <text x="575" y="524" fill="#97AAC6" font-family="Helvetica, Arial, sans-serif" font-size="15" font-weight="700" text-anchor="middle">API sandbox</text>

  <text x="684" y="244" fill="#67D0FF" font-family="Helvetica, Arial, sans-serif" font-size="13" font-weight="700" letter-spacing="0.12em">LIVE REPO CONTROL</text>
  <text x="684" y="282" fill="#F8FAFC" font-family="Helvetica, Arial, sans-serif" font-size="32" font-weight="700">Import a repo, run the</text>
  <text x="684" y="318" fill="#F8FAFC" font-family="Helvetica, Arial, sans-serif" font-size="32" font-weight="700">right action, and keep</text>
  <text x="684" y="354" fill="#F8FAFC" font-family="Helvetica, Arial, sans-serif" font-size="32" font-weight="700">route + logs visible.</text>
  <text x="684" y="388" fill="#9FB1CD" font-family="Helvetica, Arial, sans-serif" font-size="16">PortPilot keeps setup, runtime, and observability on the same surface.</text>

  <rect x="684" y="416" width="394" height="114" rx="28" fill="#1A3048"/>
  <text x="714" y="452" fill="#8EDCFF" font-family="Helvetica, Arial, sans-serif" font-size="14" font-weight="700">Focused repo</text>
  <text x="714" y="490" fill="#F8FAFC" font-family="Helvetica, Arial, sans-serif" font-size="30" font-weight="700">Crucix is online</text>
  <text x="714" y="516" fill="#C4D1E1" font-family="Helvetica, Arial, sans-serif" font-size="15">Env parsed and route healthy.</text>
  <rect x="938" y="438" width="116" height="42" rx="21" fill="url(#blue)"/>
  <text x="996" y="465" fill="#F8FAFC" font-family="Helvetica, Arial, sans-serif" font-size="16" font-weight="700" text-anchor="middle">Running</text>
  <rect x="922" y="492" width="132" height="28" rx="14" fill="#101A2D"/>
  <text x="988" y="510" fill="#D6E7F8" font-family="Helvetica, Arial, sans-serif" font-size="13" font-weight="700" text-anchor="middle">crucix.localhost</text>

  <rect x="684" y="540" width="184" height="34" rx="17" fill="#17253D"/>
  <text x="776" y="562" fill="#71D6FF" font-family="Helvetica, Arial, sans-serif" font-size="13" font-weight="700" text-anchor="middle">logs tailing live</text>
  <rect x="884" y="540" width="194" height="34" rx="17" fill="#101A2D"/>
  <text x="981" y="562" fill="#D8E7F5" font-family="Helvetica, Arial, sans-serif" font-size="13" font-weight="700" text-anchor="middle">port 3117 → route online</text>
</svg>
