<svg width="1280" height="720" viewBox="0 0 1280 720" fill="none" xmlns="http://www.w3.org/2000/svg">
  <defs>
    <linearGradient id="bg" x1="120" y1="54" x2="1109" y2="679" gradientUnits="userSpaceOnUse">
      <stop stop-color="#0B1220"/>
      <stop offset="1" stop-color="#14213D"/>
    </linearGradient>
    <linearGradient id="panel" x1="290" y1="118" x2="978" y2="599" gradientUnits="userSpaceOnUse">
      <stop stop-color="#18283F"/>
      <stop offset="1" stop-color="#101A2C"/>
    </linearGradient>
    <linearGradient id="accent" x1="183" y1="122" x2="832" y2="542" gradientUnits="userSpaceOnUse">
      <stop stop-color="#53D8FB"/>
      <stop offset="1" stop-color="#0EA5E9"/>
    </linearGradient>
  </defs>
  <rect width="1280" height="720" rx="36" fill="url(#bg)"/>
  <circle cx="1091" cy="90" r="120" fill="#1D4ED8" fill-opacity="0.15"/>
  <circle cx="157" cy="623" r="154" fill="#06B6D4" fill-opacity="0.12"/>
  <rect x="94" y="86" width="1092" height="548" rx="28" fill="url(#panel)" stroke="rgba(255,255,255,0.12)"/>
  <rect x="134" y="126" width="352" height="468" rx="24" fill="#0D1525"/>
  <text x="168" y="184" fill="#F8FAFC" font-family="SF Pro Display, Inter, Arial" font-size="54" font-weight="700">PortPilot</text>
  <text x="168" y="232" fill="#94A3B8" font-family="SF Pro Text, Inter, Arial" font-size="22">One desktop console for local-first GitHub repos.</text>
  <rect x="168" y="278" width="132" height="38" rx="19" fill="#0EA5E9"/>
  <text x="196" y="303" fill="#F8FAFC" font-family="SF Pro Text, Inter, Arial" font-size="17" font-weight="700">Import</text>
  <rect x="314" y="278" width="132" height="38" rx="19" fill="#1E293B"/>
  <text x="339" y="303" fill="#E2E8F0" font-family="SF Pro Text, Inter, Arial" font-size="17" font-weight="700">Run / Stop</text>
  <text x="168" y="364" fill="#E2E8F0" font-family="SF Pro Text, Inter, Arial" font-size="18" font-weight="600">GitHub repo intake</text>
  <text x="168" y="392" fill="#94A3B8" font-family="SF Pro Text, Inter, Arial" font-size="16">Clone, inspect scripts, parse env files,</text>
  <text x="168" y="416" fill="#94A3B8" font-family="SF Pro Text, Inter, Arial" font-size="16">and build a runnable project profile automatically.</text>
  <text x="168" y="476" fill="#E2E8F0" font-family="SF Pro Text, Inter, Arial" font-size="18" font-weight="600">Unified local routing</text>
  <text x="168" y="504" fill="#94A3B8" font-family="SF Pro Text, Inter, Arial" font-size="16">Projects get a clean `.localhost` entrypoint</text>
  <text x="168" y="528" fill="#94A3B8" font-family="SF Pro Text, Inter, Arial" font-size="16">with logs, ports, and health in one place.</text>
  <rect x="532" y="126" width="614" height="220" rx="24" fill="#0D1525"/>
  <rect x="532" y="376" width="292" height="218" rx="24" fill="#0D1525"/>
  <rect x="854" y="376" width="292" height="218" rx="24" fill="#0D1525"/>
  <rect x="566" y="166" width="156" height="28" rx="14" fill="#0EA5E9" fill-opacity="0.18"/>
  <text x="586" y="185" fill="#67E8F9" font-family="SF Pro Text, Inter, Arial" font-size="14" font-weight="700">Dashboard</text>
  <rect x="566" y="216" width="546" height="96" rx="20" fill="url(#accent)" fill-opacity="0.16"/>
  <rect x="590" y="238" width="170" height="52" rx="16" fill="#082F49"/>
  <text x="618" y="271" fill="#BAE6FD" font-family="SF Pro Text, Inter, Arial" font-size="18" font-weight="700">Crucix</text>
  <rect x="776" y="238" width="160" height="52" rx="16" fill="#0F172A"/>
  <text x="808" y="271" fill="#E2E8F0" font-family="SF Pro Text, Inter, Arial" font-size="18" font-weight="700">worldmonitor</text>
  <rect x="954" y="238" width="130" height="52" rx="16" fill="#1D4ED8"/>
  <text x="991" y="271" fill="#EFF6FF" font-family="SF Pro Text, Inter, Arial" font-size="18" font-weight="700">Running</text>
  <rect x="566" y="416" width="110" height="26" rx="13" fill="#0EA5E9" fill-opacity="0.18"/>
  <text x="587" y="434" fill="#67E8F9" font-family="SF Pro Text, Inter, Arial" font-size="14" font-weight="700">Actions</text>
  <rect x="566" y="466" width="224" height="36" rx="18" fill="#1E293B"/>
  <text x="590" y="490" fill="#E2E8F0" font-family="SF Pro Text, Inter, Arial" font-size="16">Install  Run  Build  Deploy</text>
  <rect x="888" y="416" width="134" height="26" rx="13" fill="#0EA5E9" fill-opacity="0.18"/>
  <text x="910" y="434" fill="#67E8F9" font-family="SF Pro Text, Inter, Arial" font-size="14" font-weight="700">Routes + Logs</text>
  <rect x="888" y="466" width="224" height="36" rx="18" fill="#0F172A"/>
  <text x="912" y="489" fill="#E2E8F0" font-family="SF Pro Text, Inter, Arial" font-size="15">gateway.localhost/p/crucix</text>
  <text x="912" y="533" fill="#94A3B8" font-family="SF Mono, Menlo, monospace" font-size="14">[stdout] dev server ready on :3117</text>
  <text x="912" y="559" fill="#94A3B8" font-family="SF Mono, Menlo, monospace" font-size="14">[route ] mapped to crucix.localhost</text>
</svg>
