<svg width="1280" height="720" viewBox="0 0 1280 720" fill="none" xmlns="http://www.w3.org/2000/svg">
  <defs>
    <linearGradient id="bg" x1="78" y1="42" x2="1174" y2="702" gradientUnits="userSpaceOnUse">
      <stop stop-color="#09101F"/>
      <stop offset="1" stop-color="#14213C"/>
    </linearGradient>
    <linearGradient id="shell" x1="118" y1="96" x2="1128" y2="616" gradientUnits="userSpaceOnUse">
      <stop stop-color="#16233D"/>
      <stop offset="1" stop-color="#121B2F"/>
    </linearGradient>
    <linearGradient id="panel" x1="136" y1="126" x2="456" y2="544" gradientUnits="userSpaceOnUse">
      <stop stop-color="#0F172A"/>
      <stop offset="1" stop-color="#10192D"/>
    </linearGradient>
    <linearGradient id="window" x1="488" y1="146" x2="1120" y2="560" gradientUnits="userSpaceOnUse">
      <stop stop-color="#111B30"/>
      <stop offset="1" stop-color="#0C1527"/>
    </linearGradient>
    <linearGradient id="accent" x1="776" y1="250" x2="1120" y2="344" gradientUnits="userSpaceOnUse">
      <stop stop-color="#1D4ED8"/>
      <stop offset="1" stop-color="#38BDF8"/>
    </linearGradient>
    <filter id="shellShadow" x="68" y="64" width="1140" height="592" filterUnits="userSpaceOnUse" color-interpolation-filters="sRGB">
      <feFlood flood-opacity="0" result="BackgroundImageFix"/>
      <feColorMatrix in="SourceAlpha" type="matrix" values="0 0 0 0 0 0 0 0 0 0 0 0 0 0 0 0 0 0 127 0" result="hardAlpha"/>
      <feOffset dy="18"/>
      <feGaussianBlur stdDeviation="14"/>
      <feComposite in2="hardAlpha" operator="out"/>
      <feColorMatrix type="matrix" values="0 0 0 0 0.0156863 0 0 0 0 0.0470588 0 0 0 0 0.121569 0 0 0 0.36 0"/>
      <feBlend mode="normal" in2="BackgroundImageFix" result="effect1_dropShadow_0_1"/>
      <feBlend mode="normal" in="SourceGraphic" in2="effect1_dropShadow_0_1" result="shape"/>
    </filter>
  </defs>

  <rect width="1280" height="720" rx="36" fill="url(#bg)"/>
  <circle cx="1118" cy="84" r="126" fill="#2A4BFF" fill-opacity="0.12"/>
  <circle cx="114" cy="628" r="208" fill="#38BDF8" fill-opacity="0.08"/>
  <circle cx="982" cy="636" r="128" fill="#0EA5E9" fill-opacity="0.07"/>

  <g filter="url(#shellShadow)">
    <rect x="96" y="84" width="1088" height="548" rx="30" fill="url(#shell)" stroke="#293855"/>
  </g>

  <rect x="140" y="128" width="300" height="460" rx="28" fill="url(#panel)"/>
  <text x="176" y="188" fill="#F8FAFC" font-family="Helvetica, Arial, sans-serif" font-size="58" font-weight="700">PortPilot</text>
  <text x="176" y="236" fill="#9FB1CD" font-family="Helvetica, Arial, sans-serif" font-size="19">Control every local repo</text>
  <text x="176" y="262" fill="#9FB1CD" font-family="Helvetica, Arial, sans-serif" font-size="19">from one desktop surface.</text>

  <text x="176" y="320" fill="#67D0FF" font-family="Helvetica, Arial, sans-serif" font-size="13" font-weight="700" letter-spacing="0.08em">IMPORT • RUN • ROUTE</text>

  <rect x="176" y="346" width="146" height="46" rx="23" fill="#4CA7F1"/>
  <text x="248" y="375" fill="#F8FAFC" font-family="Helvetica, Arial, sans-serif" font-size="16" font-weight="700" text-anchor="middle">Download Beta</text>
  <rect x="338" y="346" width="142" height="46" rx="23" fill="#25324B"/>
  <text x="409" y="375" fill="#DFE7F2" font-family="Helvetica, Arial, sans-serif" font-size="16" font-weight="700" text-anchor="middle">View Releases</text>

  <rect x="176" y="432" width="228" height="42" rx="21" fill="#182742"/>
  <circle cx="202" cy="453" r="6" fill="#38BDF8"/>
  <text x="218" y="458" fill="#E9F1FB" font-family="Helvetica, Arial, sans-serif" font-size="15" font-weight="600">GitHub intake → action graph</text>

  <rect x="176" y="490" width="228" height="42" rx="21" fill="#111B30"/>
  <circle cx="202" cy="511" r="6" fill="#22C55E"/>
  <text x="218" y="516" fill="#E9F1FB" font-family="Helvetica, Arial, sans-serif" font-size="15" font-weight="600">Routes, logs, and ports stay live</text>

  <rect x="476" y="128" width="664" height="460" rx="32" fill="url(#window)" stroke="#263652"/>
  <rect x="476" y="128" width="664" height="58" rx="32" fill="#101A2D"/>
  <path d="M476 154C476 139.641 487.641 128 502 128H1114C1128.36 128 1140 139.641 1140 154V186H476V154Z" fill="#101A2D"/>
  <circle cx="512" cy="157" r="6" fill="#2E3F5F"/>
  <circle cx="532" cy="157" r="6" fill="#2E3F5F"/>
  <circle cx="552" cy="157" r="6" fill="#2E3F5F"/>
  <text x="584" y="162" fill="#7E91AF" font-family="Helvetica, Arial, sans-serif" font-size="13" font-weight="600">Workspace</text>
  <rect x="1028" y="144" width="76" height="26" rx="13" fill="#17314A"/>
  <text x="1066" y="161" fill="#70D5FF" font-family="Helvetica, Arial, sans-serif" font-size="13" font-weight="700" text-anchor="middle">Dashboard</text>

  <rect x="500" y="204" width="154" height="352" rx="24" fill="#0E172A"/>
  <text x="526" y="248" fill="#F8FAFC" font-family="Helvetica, Arial, sans-serif" font-size="18" font-weight="700">Projects</text>
  <rect x="526" y="272" width="102" height="34" rx="17" fill="#18314A"/>
  <text x="577" y="294" fill="#70D5FF" font-family="Helvetica, Arial, sans-serif" font-size="15" font-weight="700" text-anchor="middle">Running 2 / 3</text>
  <rect x="516" y="334" width="122" height="54" rx="18" fill="#17314A"/>
  <text x="542" y="364" fill="#9BDFFF" font-family="Helvetica, Arial, sans-serif" font-size="13" font-weight="700">Project A</text>
  <text x="542" y="383" fill="#F8FAFC" font-family="Helvetica, Arial, sans-serif" font-size="19" font-weight="700">Crucix</text>
  <rect x="516" y="404" width="122" height="54" rx="18" fill="#111C31"/>
  <text x="542" y="434" fill="#92A4BF" font-family="Helvetica, Arial, sans-serif" font-size="13" font-weight="700">Project B</text>
  <text x="542" y="453" fill="#E5EDF8" font-family="Helvetica, Arial, sans-serif" font-size="18" font-weight="700">worldmonitor</text>
  <rect x="516" y="474" width="122" height="54" rx="18" fill="#111C31"/>
  <text x="542" y="504" fill="#92A4BF" font-family="Helvetica, Arial, sans-serif" font-size="13" font-weight="700">Project C</text>
  <text x="542" y="523" fill="#E5EDF8" font-family="Helvetica, Arial, sans-serif" font-size="18" font-weight="700">API sandbox</text>

  <text x="686" y="234" fill="#67D0FF" font-family="Helvetica, Arial, sans-serif" font-size="13" font-weight="700" letter-spacing="0.08em">LIVE CONTROL</text>
  <text x="686" y="274" fill="#F8FAFC" font-family="Helvetica, Arial, sans-serif" font-size="35" font-weight="700">Run a repo and keep</text>
  <text x="686" y="314" fill="#F8FAFC" font-family="Helvetica, Arial, sans-serif" font-size="35" font-weight="700">everything in sight.</text>
  <text x="686" y="346" fill="#9FB1CD" font-family="Helvetica, Arial, sans-serif" font-size="16">Import from GitHub, apply env values, route it to `.localhost`,</text>
  <text x="686" y="370" fill="#9FB1CD" font-family="Helvetica, Arial, sans-serif" font-size="16">and watch runtime health without jumping between tools.</text>

  <rect x="686" y="398" width="418" height="116" rx="26" fill="#19304A"/>
  <text x="716" y="434" fill="#8EDCFF" font-family="Helvetica, Arial, sans-serif" font-size="14" font-weight="700">Focused repo</text>
  <text x="716" y="472" fill="#F8FAFC" font-family="Helvetica, Arial, sans-serif" font-size="28" font-weight="700">Crucix is online</text>
  <text x="716" y="497" fill="#C5D1E1" font-family="Helvetica, Arial, sans-serif" font-size="15">Dev server started and route healthy.</text>
  <text x="716" y="519" fill="#C5D1E1" font-family="Helvetica, Arial, sans-serif" font-size="15">Logs keep streaming without context switching.</text>
  <rect x="962" y="420" width="118" height="40" rx="20" fill="url(#accent)"/>
  <text x="1021" y="446" fill="#F8FAFC" font-family="Helvetica, Arial, sans-serif" font-size="16" font-weight="700" text-anchor="middle">Running</text>
  <rect x="948" y="470" width="132" height="28" rx="14" fill="#101A2D"/>
  <text x="1014" y="488" fill="#D5E7F8" font-family="Helvetica, Arial, sans-serif" font-size="13" font-weight="700" text-anchor="middle">crucix.localhost</text>

  <rect x="686" y="528" width="196" height="28" rx="14" fill="#17253D"/>
  <text x="784" y="546" fill="#71D6FF" font-family="Helvetica, Arial, sans-serif" font-size="13" font-weight="700" text-anchor="middle">logs tailing live</text>
  <rect x="900" y="528" width="204" height="28" rx="14" fill="#101A2D"/>
  <text x="1002" y="546" fill="#D8E7F5" font-family="Helvetica, Arial, sans-serif" font-size="13" font-weight="700" text-anchor="middle">port 3117 → route online</text>
</svg>
